<svg xmlns="http://www.w3.org/2000/svg" xmlns:xlink="http://www.w3.org/1999/xlink" viewBox="0 0 346.97 161.57"><defs><style>.cls-1{fill:none;}.cls-2{isolation:isolate;}.cls-3{opacity:0.3;mix-blend-mode:multiply;}.cls-4{fill:url(#radial-gradient);}.cls-5{fill:url(#linear-gradient);}.cls-6{opacity:0.2;}.cls-7{fill:#fff;}.cls-8{clip-path:url(#clip-path);}</style><radialGradient id="radial-gradient" cx="-394.49" cy="2047.97" r="62.51" gradientTransform="translate(580.23 -2004.84) scale(1.04 1.03)" gradientUnits="userSpaceOnUse"><stop offset="0.55" stop-color="#e9140b"/><stop offset="0.58" stop-color="#ec3129" stop-opacity="0.88"/><stop offset="0.64" stop-color="#f16761" stop-opacity="0.65"/><stop offset="0.71" stop-color="#f59692" stop-opacity="0.45"/><stop offset="0.77" stop-color="#f9bcb9" stop-opacity="0.29"/><stop offset="0.83" stop-color="#fbd9d8" stop-opacity="0.16"/><stop offset="0.89" stop-color="#fdeeed" stop-opacity="0.07"/><stop offset="0.94" stop-color="#fffbfb" stop-opacity="0.02"/><stop offset="1" stop-color="#fff" stop-opacity="0"/></radialGradient><linearGradient id="linear-gradient" x1="173.12" y1="90.64" x2="116.11" y2="172.99" gradientUnits="userSpaceOnUse"><stop offset="0" stop-color="#ff5e58"/><stop offset="0.54" stop-color="#ef150d"/><stop offset="0.68" stop-color="#e11209"/><stop offset="0.89" stop-color="#c30d00"/><stop offset="1" stop-color="#ef150d"/></linearGradient><clipPath id="clip-path" transform="translate(39.45 -56.59)"><rect class="cls-1" width="288" height="288"/></clipPath></defs><title>25529 [Converted]</title><g class="cls-2"><g id="Layer_1" data-name="Layer 1"><g class="cls-3"><ellipse class="cls-4" cx="171.3" cy="97.41" rx="64.8" ry="64.17"/></g><path class="cls-5" d="M141.25,57.26c4.56,30.1,73.71,90.54,21.25,123.23a41.65,41.65,0,0,1-57.37-13.32C81.47,129.19,135,88.24,139.7,57.26a.77.77,0,0,1,.89-.66A.78.78,0,0,1,141.25,57.26Z" transform="translate(39.45 -56.59)"/><g class="cls-6"><path class="cls-7" d="M150.89,86.6c17.6,32,35.14,68.83.91,92.53a40.86,40.86,0,0,1-5.3,3.1,41.87,41.87,0,0,0,10.08-4.55C193.94,154.4,169.63,117,150.89,86.6Z" transform="translate(39.45 -56.59)"/></g><g class="cls-8"><path class="cls-7" d="M200.46,175.84h0a.53.53,0,0,1-.52-.5l-4.63-75.56L188,153.28a.53.53,0,0,1-1,0l-3.31-24.23-2.18,6.17a.54.54,0,0,1-.51.36H155.27L152,151.16a.53.53,0,0,1-1.05-.06l-1.72-21.22-4.78,45.48a.52.52,0,0,1-.54.48.53.53,0,0,1-.52-.5l-4.64-75.56-7.24,53.5a.54.54,0,0,1-1.06,0l-3.31-24.23L125,135.22a.53.53,0,0,1-.5.36H98.74l-3.27,15.58a.54.54,0,0,1-.56.43.54.54,0,0,1-.5-.49L92.7,129.88l-4.78,45.48a.51.51,0,0,1-.55.48.53.53,0,0,1-.52-.5L82.22,99.78,75,153.28a.52.52,0,0,1-.53.46.54.54,0,0,1-.53-.46L70.6,129.05l-2.18,6.17a.52.52,0,0,1-.5.36H-38.91a.54.54,0,0,1-.54-.53.54.54,0,0,1,.54-.54H67.54l2.79-7.89a.53.53,0,0,1,1,.11l3.08,22.52,7.45-55a.53.53,0,0,1,.55-.46.54.54,0,0,1,.51.5l4.57,74.58,4.72-44.82a.53.53,0,0,1,.53-.48h0a.53.53,0,0,1,.52.49l1.88,23.27,2.6-12.39a.53.53,0,0,1,.52-.43h25.78l2.79-7.89a.53.53,0,0,1,1,.11L131,149.25l7.44-55a.53.53,0,0,1,1.06,0l4.58,74.58,4.71-44.82a.53.53,0,0,1,.53-.48h0a.54.54,0,0,1,.53.49l1.87,23.27,2.61-12.39a.53.53,0,0,1,.52-.43h25.77l2.79-7.89a.54.54,0,0,1,1,.11l3.07,22.52,7.45-55a.53.53,0,0,1,.55-.46.54.54,0,0,1,.51.5l4.58,74.58,4.71-44.82a.53.53,0,0,1,.53-.48h0a.53.53,0,0,1,.52.49l1.88,23.27,2.6-12.39a.53.53,0,0,1,.52-.43H307a.54.54,0,1,1,0,1.07H211.81l-3.27,15.58a.53.53,0,0,1-.56.43.54.54,0,0,1-.5-.49l-1.71-21.22L201,175.36A.53.53,0,0,1,200.46,175.84Z" transform="translate(39.45 -56.59)"/></g></g></g></svg>