<?xml version="1.0" standalone="no"?>
<!DOCTYPE svg PUBLIC "-//W3C//DTD SVG 20010904//EN"
 "http://www.w3.org/TR/2001/REC-SVG-20010904/DTD/svg10.dtd">
<svg version="1.0" xmlns="http://www.w3.org/2000/svg"
 width="512.000000pt" height="512.000000pt" viewBox="0 0 512.000000 512.000000"
 preserveAspectRatio="xMidYMid meet">

<g transform="translate(0.000000,512.000000) scale(0.100000,-0.100000)"
fill="#000000" stroke="none">
<path d="M1923 5028 c-21 -35 -54 -79 -256 -332 -71 -89 -141 -181 -155 -206
l-27 -45 -6 -490 c-6 -526 -9 -557 -65 -753 -54 -186 -192 -483 -299 -641
-123 -183 -247 -472 -296 -693 -27 -118 -37 -418 -19 -541 40 -272 172 -560
350 -765 113 -129 326 -304 390 -319 14 -3 34 -14 45 -24 52 -46 345 -158 496
-189 76 -16 149 -22 279 -24 161 -3 185 -1 308 25 214 46 415 116 512 177 307
195 402 275 536 455 85 114 173 283 208 400 32 109 64 289 73 412 4 55 7 240
7 410 1 265 -2 322 -17 390 -37 164 -70 236 -180 398 -61 90 -235 266 -406
411 -257 217 -470 437 -487 504 -3 12 -10 22 -14 22 -12 0 -18 -35 -31 -190
-20 -251 3 -435 71 -570 36 -71 123 -162 219 -230 175 -123 305 -357 358 -645
13 -69 17 -148 16 -340 0 -278 -7 -319 -77 -492 -60 -146 -109 -218 -230 -338
-193 -191 -425 -297 -714 -326 -175 -18 -399 18 -573 90 -144 60 -327 190
-373 264 -12 19 -48 70 -81 113 -33 44 -75 112 -93 151 -66 143 -112 393 -112
608 0 93 42 264 85 340 18 33 44 88 58 122 14 35 48 100 75 145 219 368 412
772 412 862 0 14 12 70 27 123 l27 98 4 833 c3 724 1 832 -11 832 -8 0 -24
-15 -34 -32z"/>
<path d="M2345 4926 c-82 -31 -145 -132 -131 -214 25 -156 208 -225 328 -124
129 109 59 327 -113 347 -26 3 -60 -1 -84 -9z"/>
<path d="M2959 4473 c-80 -177 -117 -346 -104 -476 11 -120 16 -127 177 -271
672 -599 850 -778 928 -933 l28 -56 7 45 c4 25 5 161 3 304 -4 232 -7 266 -26
324 -42 128 -83 180 -303 384 -112 104 -288 269 -390 366 -181 174 -187 181
-237 280 l-52 101 -31 -68z"/>
<path d="M3386 4479 c-28 -61 -71 -99 -109 -99 -27 0 -105 43 -181 100 -37 28
-70 50 -72 48 -1 -2 11 -31 28 -65 20 -40 55 -85 100 -129 67 -65 70 -66 111
-61 24 3 51 9 60 13 11 4 17 1 17 -9 0 -26 99 -127 125 -127 17 0 22 -5 18
-18 -5 -20 17 -49 122 -165 51 -58 85 -86 132 -109 60 -29 63 -32 63 -67 0
-29 10 -49 46 -92 25 -30 65 -65 90 -78 24 -13 44 -30 44 -38 0 -21 35 -86 58
-106 70 -63 191 -27 242 74 26 49 25 109 0 160 -42 82 -130 102 -213 49 -26
-16 -54 -30 -61 -30 -15 0 -96 84 -96 99 0 5 15 20 34 34 41 32 66 83 66 137
0 48 -17 84 -57 122 -53 51 -96 62 -232 61 l-123 -2 21 23 21 22 -31 38 -31
37 -22 -20 c-31 -29 -40 -27 -75 16 -36 44 -38 65 -12 124 l19 42 -31 39 c-18
20 -34 37 -37 37 -3 0 -18 -27 -34 -60z m444 -411 c61 -32 87 -69 72 -103 -9
-20 -19 -25 -47 -25 -30 0 -46 10 -113 75 l-77 74 60 1 c44 0 73 -6 105 -22z
m352 -405 c24 -21 23 -65 -2 -88 -17 -15 -24 -16 -45 -7 -42 19 -54 82 -21
104 18 13 49 9 68 -9z"/>
<path d="M2351 3646 c-30 -122 -70 -261 -88 -311 -18 -49 -33 -97 -33 -105 0
-35 -133 -328 -166 -364 -11 -13 -80 -135 -154 -272 -74 -137 -149 -269 -168
-293 -73 -96 -205 -412 -237 -565 -32 -159 -15 -321 55 -500 51 -131 117 -231
206 -317 199 -189 410 -269 682 -256 177 7 312 55 489 174 98 66 228 215 206
237 -4 4 4 17 18 29 14 12 33 40 41 62 8 22 25 65 38 95 42 101 52 174 47 320
-4 127 -7 143 -51 275 -46 140 -91 231 -210 425 -257 420 -349 610 -459 945
-65 200 -80 258 -113 435 -9 52 -24 120 -33 151 l-16 56 -54 -221z"/>
</g>
</svg>
