<svg xmlns="http://www.w3.org/2000/svg" width="31.635" height="37.762" viewBox="0 0 31.635 37.762">
  <path id="noun-add-account-4541183" d="M205.466,108.634a8.915,8.915,0,1,0-6.295-2.611,8.908,8.908,0,0,0,6.295,2.611Zm0-15.016a6.118,6.118,0,1,1-4.319,1.791A6.11,6.11,0,0,1,205.466,93.618Zm8.716,22.29a6.981,6.981,0,0,0-4.551-1.685H201.3a6.994,6.994,0,0,0-6.987,6.987v5.911h0a1.4,1.4,0,0,1-2.795,0V121.21a9.792,9.792,0,0,1,9.781-9.781h8.328A9.776,9.776,0,0,1,216,113.788a1.4,1.4,0,1,1-1.82,2.121Zm8.975,7.552a1.4,1.4,0,0,1-1.4,1.4h-2.332v2.332a1.4,1.4,0,0,1-2.795,0v-2.332H214.3a1.4,1.4,0,0,1,0-2.795h2.332V119.73a1.4,1.4,0,1,1,2.795,0v2.332h2.332a1.4,1.4,0,0,1,1.4,1.4Z" transform="translate(-191.521 -90.824)" fill="#dd1f1f"/>
</svg>
