 <svg  version="1.0" xmlns="http://www.w3.org/2000/svg"  width="900.000000pt" height="1290.000000pt" viewBox="0 0 900.000000 1290.000000"  preserveAspectRatio="xMidYMid meet">  <g transform="translate(0.000000,1290.000000) scale(0.100000,-0.100000)" fill="#bb0b1f" stroke="none"> <path d="M2922 12777 c-12 -13 -22 -30 -22 -38 0 -8 -5 -20 -11 -26 -6 -6 -16 -20 -23 -32 -21 -38 -90 -136 -113 -161 -58 -64 -83 -94 -83 -101 0 -4 -16 -25 -35 -46 -19 -21 -35 -42 -35 -47 0 -9 -53 -79 -82 -108 -10 -10 -18 -22 -18 -27 0 -4 -10 -19 -22 -32 -13 -14 -48 -56 -78 -94 -30 -39 -70 -86 -88 -106 -18 -20 -50 -60 -72 -90 -22 -29 -44 -55 -48 -58 -5 -4 -32 -37 -61 -76 -30 -38 -57 -72 -61 -75 -10 -8 -215 -283 -223 -300 -4 -8 -16 -28 -27 -45 -11 -16 -22 -37 -26 -45 -3 -8 -12 -29 -20 -46 -13 -27 -15 -174 -13 -1165 2 -1021 0 -1141 -15 -1209 -9 -41 -16 -98 -16 -126 0 -28 -7 -73 -15 -100 -8 -27 -15 -68 -15 -92 0 -23 -7 -59 -15 -79 -8 -19 -15 -51 -15 -70 0 -18 -7 -50 -15 -70 -8 -19 -15 -50 -15 -67 -1 -17 -7 -42 -15 -56 -8 -14 -15 -38 -15 -55 0 -16 -7 -41 -15 -55 -8 -14 -14 -37 -15 -51 0 -14 -7 -34 -15 -45 -8 -10 -15 -31 -15 -45 0 -14 -7 -34 -15 -45 -8 -10 -15 -31 -15 -45 0 -14 -7 -34 -15 -45 -8 -10 -15 -28 -15 -39 0 -11 -7 -29 -15 -39 -8 -11 -15 -30 -15 -42 0 -12 -7 -27 -15 -34 -8 -7 -15 -21 -15 -30 0 -10 -8 -33 -17 -52 -9 -18 -22 -45 -30 -60 -7 -14 -13 -33 -13 -41 0 -8 -7 -20 -15 -27 -8 -7 -15 -23 -15 -35 0 -12 -7 -28 -15 -35 -8 -7 -15 -18 -15 -25 0 -12 -18 -52 -42 -95 -4 -8 -11 -22 -14 -30 -13 -32 -66 -146 -75 -160 -5 -8 -12 -22 -15 -30 -3 -8 -9 -22 -14 -30 -5 -8 -41 -78 -80 -155 -87 -171 -82 -163 -151 -255 -62 -83 -120 -171 -149 -225 -6 -11 -19 -33 -30 -50 -11 -16 -25 -41 -30 -55 -6 -13 -14 -27 -18 -30 -4 -3 -17 -25 -30 -50 -13 -25 -32 -58 -42 -75 -11 -16 -23 -37 -26 -45 -3 -8 -8 -19 -10 -25 -2 -5 -13 -23 -24 -40 -11 -16 -22 -37 -26 -45 -3 -8 -10 -22 -15 -30 -5 -8 -12 -22 -15 -30 -3 -8 -10 -22 -15 -30 -5 -8 -12 -22 -15 -30 -3 -8 -10 -22 -15 -30 -5 -8 -12 -22 -15 -30 -3 -8 -12 -30 -20 -47 -27 -63 -45 -103 -60 -140 -9 -21 -23 -51 -30 -66 -8 -16 -14 -36 -14 -45 0 -9 -7 -26 -15 -36 -8 -11 -15 -29 -15 -40 0 -12 -7 -30 -15 -40 -8 -11 -15 -29 -15 -41 0 -12 -7 -30 -15 -41 -8 -10 -15 -31 -15 -45 0 -14 -7 -34 -15 -45 -8 -10 -15 -30 -15 -44 0 -14 -7 -36 -15 -50 -8 -14 -14 -39 -15 -56 0 -16 -7 -39 -15 -50 -8 -10 -15 -35 -15 -54 0 -19 -7 -46 -15 -60 -8 -14 -14 -40 -15 -58 0 -18 -7 -49 -15 -69 -8 -19 -15 -50 -15 -68 0 -18 -7 -52 -15 -75 -8 -23 -15 -61 -15 -84 0 -24 -6 -65 -14 -92 -20 -70 -30 -250 -30 -534 0 -284 10 -464 30 -534 8 -27 14 -68 14 -92 0 -23 7 -61 15 -84 8 -23 15 -57 15 -75 0 -18 7 -49 15 -68 8 -20 15 -51 15 -69 1 -18 7 -44 15 -58 8 -14 15 -38 15 -55 0 -16 7 -41 15 -55 8 -14 15 -36 15 -50 0 -14 7 -34 15 -44 8 -11 15 -30 15 -42 0 -12 7 -36 15 -53 8 -17 22 -45 30 -62 8 -17 15 -37 15 -44 0 -12 17 -51 42 -95 4 -8 11 -22 14 -30 10 -27 36 -85 45 -100 5 -8 11 -21 14 -27 12 -31 17 -41 49 -98 19 -33 46 -82 60 -110 15 -27 35 -63 46 -80 11 -16 24 -39 30 -50 6 -11 19 -33 30 -50 11 -16 24 -39 29 -50 15 -30 137 -202 210 -297 83 -106 425 -450 556 -557 55 -46 109 -90 120 -100 11 -9 36 -27 55 -41 19 -13 46 -35 60 -48 13 -13 44 -35 67 -49 24 -14 43 -28 43 -33 0 -4 8 -10 17 -14 10 -3 32 -15 48 -26 17 -11 35 -21 40 -23 6 -2 26 -10 45 -17 19 -6 49 -15 67 -19 18 -3 53 -24 78 -45 49 -42 63 -51 135 -86 25 -12 57 -28 72 -36 14 -8 33 -14 41 -14 8 0 20 -7 27 -15 7 -8 21 -15 30 -15 10 0 31 -6 47 -14 15 -8 46 -22 68 -31 22 -10 53 -24 68 -31 16 -8 36 -14 45 -14 9 0 26 -7 36 -15 11 -8 29 -15 40 -15 12 0 30 -7 40 -15 11 -8 29 -15 40 -15 12 0 30 -7 40 -15 11 -8 29 -15 41 -15 12 0 30 -7 41 -15 10 -8 30 -15 44 -15 14 0 34 -7 44 -15 11 -8 31 -15 45 -15 14 -1 37 -7 51 -15 14 -8 39 -15 55 -15 17 0 41 -7 55 -15 14 -8 40 -14 58 -15 18 0 49 -7 69 -15 19 -8 54 -15 77 -15 23 0 65 -6 92 -14 63 -18 250 -30 429 -29 209 2 427 2 540 1 103 -1 199 10 248 31 16 6 45 11 65 11 20 1 48 7 62 15 14 8 41 14 61 15 20 0 53 7 72 15 20 8 49 15 65 15 16 0 46 7 65 15 20 8 52 15 70 15 19 0 40 6 46 14 6 8 24 16 39 19 40 8 113 27 147 39 17 5 41 12 55 15 14 2 39 10 55 18 47 20 98 37 127 42 15 3 33 11 39 19 6 8 21 14 33 14 12 0 31 7 42 15 10 8 29 15 40 15 12 0 27 7 34 15 7 8 21 15 30 15 10 0 31 6 47 14 15 8 48 24 73 36 63 30 131 68 149 84 9 7 23 16 31 20 8 3 29 15 45 26 17 11 37 23 45 27 8 4 43 26 78 50 35 24 66 43 69 43 3 0 22 13 42 29 20 15 41 30 46 32 6 2 43 27 83 54 41 28 81 55 90 60 9 6 33 22 53 38 20 15 40 27 44 27 4 0 24 14 45 30 21 17 41 30 45 30 32 0 286 245 445 429 30 35 62 71 71 80 8 9 38 45 64 81 27 36 53 70 57 75 38 48 108 145 108 151 0 3 14 23 30 44 16 21 30 41 30 44 0 3 20 35 45 72 25 36 45 71 45 79 0 8 5 17 11 20 5 4 14 17 20 28 5 12 13 29 18 37 5 8 12 22 15 30 4 8 17 35 31 59 14 24 25 50 25 56 0 7 7 18 15 25 8 7 15 23 15 35 0 12 7 28 15 35 8 7 15 20 15 29 0 10 7 26 15 37 8 10 15 28 15 40 0 11 7 29 15 40 8 10 15 28 15 40 0 11 7 29 15 40 8 10 15 30 15 44 0 14 6 34 14 45 7 11 16 34 18 50 3 17 10 44 16 60 6 17 16 68 22 115 17 139 25 184 38 207 7 12 12 39 12 60 1 21 7 49 15 63 8 14 14 43 15 65 0 22 5 56 12 75 6 20 14 140 17 285 4 170 10 257 19 272 9 17 12 205 10 850 l-3 828 -27 69 c-16 38 -28 88 -28 111 0 24 -7 59 -15 78 -8 20 -15 53 -15 74 -1 21 -7 49 -15 63 -8 14 -14 37 -15 51 0 14 -7 34 -15 45 -8 10 -15 27 -15 36 0 14 -16 52 -42 98 -4 8 -11 22 -14 30 -22 52 -68 138 -83 153 -6 6 -11 17 -11 23 0 7 -14 33 -30 57 -16 25 -30 50 -30 56 0 6 -4 11 -9 11 -5 0 -13 10 -17 23 -4 12 -20 38 -35 58 -16 20 -29 39 -29 42 0 7 -82 127 -126 185 -89 118 -284 321 -453 473 -52 46 -101 91 -110 100 -9 8 -45 39 -81 69 -35 29 -76 64 -91 79 -138 135 -214 206 -269 251 -36 29 -67 56 -70 59 -3 4 -41 35 -85 68 -44 34 -101 83 -126 109 -82 86 -192 188 -254 236 -33 25 -144 131 -246 235 -180 181 -311 340 -358 434 -12 24 -27 53 -33 64 -6 11 -14 27 -18 35 -4 8 -17 16 -29 18 -18 3 -21 -1 -21 -35 0 -21 -7 -65 -15 -98 -8 -33 -14 -96 -15 -140 0 -44 -7 -125 -15 -179 -21 -138 -21 -722 0 -816 8 -36 14 -88 15 -116 0 -28 7 -68 15 -87 8 -20 15 -51 15 -69 1 -18 7 -44 15 -58 8 -14 15 -38 15 -55 0 -16 7 -39 15 -49 8 -11 15 -29 15 -40 0 -12 7 -30 15 -40 8 -11 15 -27 15 -37 0 -9 7 -22 15 -29 8 -7 15 -20 15 -30 0 -10 7 -23 15 -30 8 -7 15 -18 15 -26 0 -13 65 -113 123 -189 51 -66 157 -168 244 -233 45 -34 85 -62 88 -62 4 0 59 -42 124 -94 153 -123 381 -363 414 -436 4 -8 16 -28 26 -45 11 -16 32 -52 47 -80 49 -89 55 -100 74 -130 11 -16 22 -34 24 -40 2 -5 7 -17 10 -25 3 -8 15 -28 26 -45 11 -16 24 -39 30 -50 5 -11 14 -27 18 -35 28 -51 42 -84 42 -104 0 -12 5 -27 11 -33 6 -6 15 -29 19 -50 8 -36 13 -52 41 -135 6 -18 14 -53 18 -78 4 -25 13 -55 19 -67 7 -12 12 -37 12 -56 0 -19 7 -51 15 -70 8 -20 15 -59 15 -86 0 -27 5 -62 11 -78 6 -15 15 -84 20 -153 5 -69 13 -156 18 -195 14 -94 14 -798 0 -905 -6 -47 -14 -132 -18 -190 -4 -58 -13 -115 -19 -127 -7 -12 -12 -37 -12 -55 0 -19 -7 -43 -15 -54 -8 -10 -15 -32 -15 -49 0 -16 -7 -41 -15 -55 -8 -14 -15 -36 -15 -50 0 -14 -7 -34 -15 -44 -8 -11 -15 -29 -15 -41 0 -12 -7 -30 -15 -41 -8 -10 -15 -27 -15 -36 0 -9 -6 -29 -14 -45 -8 -15 -21 -44 -29 -63 -33 -75 -119 -248 -152 -305 -19 -33 -39 -69 -45 -80 -6 -11 -19 -33 -30 -50 -11 -16 -24 -39 -29 -50 -5 -11 -18 -29 -28 -40 -10 -11 -52 -58 -93 -105 -109 -125 -335 -348 -410 -405 -36 -27 -69 -55 -73 -62 -4 -7 -13 -13 -19 -13 -5 0 -27 -12 -47 -27 -40 -31 -67 -48 -96 -63 -11 -6 -33 -19 -50 -30 -16 -11 -37 -22 -45 -26 -8 -3 -22 -9 -30 -14 -8 -5 -49 -26 -90 -45 -41 -20 -82 -41 -90 -46 -8 -5 -22 -12 -30 -15 -8 -3 -31 -13 -50 -22 -19 -8 -48 -21 -65 -28 -49 -20 -109 -46 -130 -57 -11 -6 -38 -14 -60 -18 -22 -4 -56 -12 -75 -19 -83 -28 -97 -33 -135 -40 -22 -5 -59 -13 -82 -19 -111 -28 -133 -32 -203 -41 -41 -5 -91 -14 -110 -20 -22 -7 -155 -11 -365 -11 -266 0 -341 3 -388 16 -32 8 -79 15 -105 15 -26 1 -65 7 -87 15 -22 8 -55 15 -73 15 -18 0 -49 7 -69 15 -19 8 -47 15 -62 15 -14 1 -37 7 -51 15 -14 8 -39 14 -55 15 -17 0 -39 6 -50 14 -11 7 -33 16 -50 18 -36 7 -89 25 -128 44 -16 8 -37 14 -47 14 -9 0 -23 7 -30 15 -7 8 -20 15 -29 15 -16 0 -253 116 -306 150 -16 11 -39 24 -50 30 -52 28 -114 69 -145 97 -14 13 -29 23 -33 23 -8 0 -28 15 -107 77 -142 112 -260 225 -260 249 0 12 -7 27 -15 34 -8 7 -15 18 -15 24 0 6 -26 40 -57 75 -112 124 -303 387 -303 417 0 7 -4 15 -10 19 -13 8 -110 207 -110 227 0 8 -7 21 -15 28 -8 7 -15 24 -15 39 0 14 -7 35 -15 45 -8 11 -15 31 -15 44 0 13 -5 33 -12 45 -6 12 -15 40 -19 62 -4 22 -11 54 -17 70 -17 48 -33 116 -41 170 -5 28 -13 63 -19 78 -7 16 -12 46 -12 67 0 22 -7 65 -15 97 -9 36 -15 103 -15 183 0 69 -5 141 -10 160 -14 46 -33 211 -33 280 0 119 15 297 29 339 8 25 14 58 14 75 1 17 7 42 15 56 8 14 15 39 15 55 0 17 7 39 15 49 8 11 15 41 15 66 0 25 7 55 15 66 8 10 15 30 15 42 0 13 6 36 14 50 8 15 17 34 20 42 4 8 15 29 26 45 10 17 30 53 44 82 15 28 31 55 36 58 6 3 10 14 10 24 0 10 7 24 15 31 8 7 15 20 15 30 0 10 7 23 15 30 8 7 15 21 15 30 0 10 6 31 14 47 7 15 20 44 29 63 26 61 118 244 138 275 10 17 22 37 26 45 10 23 47 75 56 78 4 2 7 8 7 14 0 6 14 30 30 55 17 24 30 50 30 58 0 8 4 16 9 20 6 3 21 29 36 58 14 28 41 79 60 112 19 33 39 69 45 80 5 11 14 27 19 35 5 8 12 22 15 30 4 8 15 29 26 45 11 17 24 39 30 50 6 11 19 34 30 50 11 17 22 36 25 43 3 6 7 18 10 25 3 6 14 26 24 42 11 17 49 91 86 165 37 74 71 142 76 150 5 8 12 22 15 30 3 8 19 42 34 75 15 33 31 67 34 75 3 8 15 29 26 45 11 17 26 44 35 60 8 17 28 53 45 80 16 28 33 57 36 65 3 8 12 30 20 48 39 90 60 146 74 197 11 39 29 91 46 133 8 18 14 41 14 51 0 10 7 24 15 31 8 7 15 22 15 34 1 11 7 32 15 46 10 17 14 57 15 126 0 72 4 106 15 120 8 10 15 30 15 44 0 14 7 36 15 50 8 14 15 39 15 55 0 17 7 41 15 55 8 14 14 39 15 57 0 17 5 44 11 60 11 28 17 73 39 293 7 81 10 692 8 2075 l-3 1960 -20 3 c-12 2 -30 -8 -43 -21z"/> <path d="M3965 12447 c-33 -11 -62 -23 -65 -26 -3 -3 -23 -15 -44 -26 -58 -29 -136 -112 -174 -183 -17 -34 -32 -68 -32 -76 0 -8 -7 -27 -15 -42 -20 -40 -20 -198 0 -238 8 -15 15 -34 15 -42 0 -26 63 -134 104 -178 47 -49 139 -111 182 -122 15 -4 39 -13 53 -20 37 -20 217 -19 255 1 15 8 34 15 41 15 55 0 241 151 260 211 4 13 14 29 21 37 8 7 14 22 14 32 0 10 7 31 15 46 21 40 21 238 0 278 -8 15 -15 36 -15 46 0 10 -6 25 -14 32 -7 8 -17 24 -20 36 -19 58 -207 212 -260 212 -8 0 -27 7 -42 15 -45 23 -203 19 -279 -8z"/> <path d="M5575 11445 c-4 -11 -11 -27 -16 -35 -5 -8 -12 -22 -15 -30 -6 -16 -21 -53 -48 -112 -9 -21 -24 -55 -32 -75 -9 -21 -23 -51 -30 -66 -8 -16 -14 -36 -14 -45 0 -9 -7 -26 -15 -36 -8 -11 -15 -29 -15 -41 0 -11 -6 -29 -14 -40 -7 -11 -16 -33 -18 -50 -3 -16 -11 -46 -18 -65 -6 -19 -16 -48 -22 -65 -6 -16 -14 -53 -18 -81 -4 -28 -13 -61 -19 -72 -6 -11 -11 -42 -11 -69 -1 -26 -7 -75 -15 -108 -17 -72 -20 -362 -4 -415 5 -19 14 -66 19 -105 14 -118 26 -141 130 -246 52 -52 145 -138 205 -190 61 -51 112 -96 115 -100 3 -4 34 -31 70 -60 109 -90 119 -100 260 -235 74 -72 164 -157 200 -189 36 -33 77 -71 91 -85 46 -44 111 -103 194 -174 44 -38 103 -90 130 -116 28 -26 88 -80 134 -119 46 -40 89 -77 96 -84 6 -7 63 -59 126 -117 91 -84 301 -283 354 -335 44 -44 226 -238 295 -314 47 -52 92 -101 101 -110 8 -9 37 -45 64 -81 27 -36 55 -69 62 -73 7 -4 13 -13 13 -19 0 -5 12 -27 28 -47 30 -40 47 -67 62 -96 6 -11 19 -33 30 -50 11 -16 22 -37 26 -45 3 -8 12 -27 20 -42 8 -14 14 -33 14 -42 0 -25 30 -19 31 7 0 12 5 74 10 137 5 63 8 135 6 160 -5 100 -1 536 7 705 7 148 5 197 -8 277 -9 54 -16 118 -16 142 0 24 -7 60 -15 79 -8 20 -15 51 -15 69 0 18 -7 42 -15 52 -8 11 -15 32 -15 46 0 14 -7 35 -15 46 -8 10 -15 27 -15 36 0 14 -11 41 -41 98 -5 8 -20 38 -34 65 -82 160 -252 350 -521 582 -70 60 -159 142 -253 234 -14 14 -71 65 -126 114 -55 49 -112 100 -126 114 -14 14 -75 71 -135 126 -304 280 -383 355 -697 670 -200 201 -317 334 -317 362 0 3 -18 35 -40 70 -23 35 -45 74 -50 86 -6 12 -14 29 -19 37 -17 29 -40 85 -45 111 -3 15 -14 37 -25 50 -19 23 -20 23 -26 4z"/> <path d="M6657 11453 c-4 -3 -7 -15 -7 -26 0 -10 -6 -31 -14 -45 -8 -15 -17 -34 -20 -42 -4 -8 -15 -28 -26 -45 -11 -16 -24 -40 -29 -51 -5 -12 -37 -50 -69 -85 -50 -53 -70 -67 -120 -83 -58 -18 -62 -18 -114 -1 -29 9 -60 21 -68 26 -8 5 -26 14 -39 19 -13 6 -38 21 -55 33 -34 24 -63 42 -86 53 -8 4 -40 26 -70 48 -30 23 -79 57 -107 76 -29 19 -53 38 -53 42 0 7 -67 48 -81 48 -15 0 -10 -46 6 -60 8 -7 15 -23 15 -36 0 -12 4 -25 9 -29 6 -3 20 -27 33 -53 38 -78 135 -200 203 -252 34 -28 75 -67 91 -87 59 -80 67 -84 151 -90 73 -5 197 7 235 22 13 5 22 -5 42 -47 29 -60 181 -234 239 -272 21 -15 51 -26 67 -26 46 0 58 -8 52 -36 -4 -24 15 -102 28 -114 3 -3 29 -34 59 -70 30 -36 62 -72 70 -81 26 -27 88 -95 176 -194 126 -141 189 -194 302 -251 37 -18 74 -34 81 -34 8 0 29 -7 48 -16 l34 -16 0 -88 c0 -66 4 -91 15 -100 8 -7 15 -17 15 -22 0 -39 271 -328 308 -328 10 0 27 -7 38 -15 10 -8 31 -15 45 -15 23 0 28 -7 42 -60 10 -33 17 -65 17 -72 0 -47 141 -228 178 -228 8 0 24 -8 34 -17 16 -14 40 -17 131 -18 117 0 118 0 226 60 39 22 134 128 158 176 51 106 55 121 50 230 -2 66 -10 121 -21 151 -23 59 -99 154 -155 192 -115 77 -326 55 -432 -45 -30 -29 -122 -70 -144 -65 -41 10 -235 228 -235 264 0 23 34 61 56 62 21 0 121 104 150 155 56 98 78 223 50 290 -9 20 -16 48 -16 60 0 12 -7 28 -15 35 -8 7 -15 18 -15 26 0 14 -127 148 -150 158 -8 3 -35 17 -59 31 -24 14 -51 25 -60 25 -9 0 -25 7 -35 15 -11 8 -34 15 -50 15 -17 0 -56 7 -86 15 -71 19 -239 19 -355 0 -49 -8 -114 -15 -142 -15 -68 0 -70 18 -8 74 25 23 45 48 45 55 0 16 -129 165 -147 169 -7 2 -37 -17 -65 -42 -29 -25 -57 -46 -63 -46 -28 0 -109 79 -174 169 -23 33 -31 55 -31 87 0 40 30 117 51 130 5 3 9 15 9 26 0 12 7 29 15 37 8 9 15 33 17 53 2 38 -17 64 -113 161 -37 37 -50 43 -62 30z m968 -1129 c118 -40 255 -126 255 -161 0 -6 7 -16 15 -23 10 -8 15 -30 15 -63 0 -64 -29 -113 -75 -126 -42 -11 -121 -3 -136 15 -6 8 -20 14 -31 14 -10 0 -21 7 -24 15 -4 8 -10 15 -14 15 -28 0 -320 293 -320 321 0 17 259 11 315 -7z m953 -1034 c77 -56 103 -153 61 -224 -37 -63 -119 -97 -149 -61 -7 8 -16 15 -21 15 -11 0 -39 28 -62 60 -12 17 -17 45 -17 95 0 78 9 94 75 128 44 23 67 21 113 -13z"/> <path d="M4084 9675 c-7 -19 -14 -50 -14 -68 0 -19 -7 -51 -15 -70 -8 -20 -15 -49 -15 -66 0 -16 -7 -42 -15 -57 -8 -16 -15 -43 -15 -60 0 -18 -7 -45 -15 -60 -8 -16 -15 -43 -15 -60 0 -18 -7 -45 -15 -60 -8 -16 -15 -42 -15 -59 -1 -16 -7 -41 -15 -55 -8 -14 -14 -39 -15 -56 0 -18 -7 -45 -15 -60 -8 -16 -15 -43 -15 -60 0 -18 -7 -45 -15 -60 -8 -16 -15 -43 -15 -60 0 -18 -7 -45 -15 -60 -8 -16 -15 -46 -15 -66 0 -21 -4 -38 -10 -38 -5 0 -12 -17 -16 -37 -4 -21 -13 -47 -20 -58 -8 -11 -14 -29 -14 -40 0 -11 -7 -29 -15 -39 -8 -11 -15 -28 -15 -38 0 -9 -7 -34 -16 -55 -52 -119 -74 -188 -74 -231 0 -18 -4 -40 -9 -50 -13 -24 -58 -125 -96 -217 -18 -43 -69 -152 -91 -197 -8 -14 -14 -37 -14 -51 0 -23 -26 -86 -40 -97 -11 -9 -50 -90 -50 -105 0 -8 -4 -15 -9 -15 -5 0 -13 -10 -17 -22 -4 -13 -20 -39 -35 -59 -16 -20 -29 -42 -29 -48 0 -5 -16 -23 -35 -38 -24 -19 -54 -63 -89 -133 -98 -192 -121 -235 -128 -240 -4 -3 -12 -17 -17 -30 -6 -14 -15 -32 -20 -40 -5 -8 -12 -22 -15 -30 -4 -8 -20 -37 -36 -65 -16 -27 -42 -75 -57 -105 -15 -30 -31 -57 -35 -60 -4 -3 -12 -17 -17 -30 -6 -14 -15 -32 -20 -40 -5 -8 -12 -22 -15 -30 -4 -8 -20 -37 -36 -65 -16 -27 -42 -75 -57 -105 -15 -30 -31 -57 -35 -60 -4 -3 -12 -17 -17 -30 -6 -14 -15 -32 -19 -40 -25 -44 -34 -61 -67 -125 -20 -39 -49 -86 -66 -104 -16 -19 -29 -37 -29 -40 0 -3 -10 -17 -23 -31 -12 -14 -34 -43 -47 -65 -13 -22 -30 -46 -37 -53 -7 -7 -13 -19 -13 -26 0 -8 -6 -19 -14 -25 -8 -6 -42 -69 -76 -139 -34 -70 -68 -140 -77 -155 -38 -71 -43 -84 -43 -109 0 -14 -7 -39 -15 -55 -31 -62 -75 -160 -75 -170 0 -6 -7 -24 -15 -39 -8 -16 -15 -38 -15 -49 0 -11 -7 -29 -15 -39 -8 -11 -15 -30 -15 -42 0 -12 -6 -35 -14 -51 -23 -45 -46 -100 -46 -111 0 -5 -7 -23 -15 -38 -8 -16 -15 -39 -15 -50 0 -12 -7 -35 -15 -50 -8 -16 -15 -42 -15 -57 0 -16 -5 -38 -12 -50 -6 -12 -15 -51 -19 -87 -4 -36 -12 -83 -18 -105 -14 -53 -14 -487 0 -540 6 -22 14 -69 18 -105 4 -36 13 -75 19 -87 7 -12 12 -34 12 -48 0 -15 6 -41 14 -58 8 -18 17 -49 21 -69 3 -21 10 -38 15 -38 6 0 10 -9 10 -21 0 -21 17 -66 46 -122 8 -16 14 -33 14 -39 0 -5 7 -26 16 -46 35 -82 47 -108 55 -122 5 -8 12 -22 15 -30 6 -15 37 -79 63 -128 8 -15 18 -29 23 -30 4 -2 8 -9 8 -16 0 -7 14 -32 30 -54 17 -23 30 -44 30 -48 0 -3 28 -42 61 -87 86 -114 294 -318 419 -410 58 -42 112 -83 120 -90 8 -6 30 -20 50 -31 19 -10 37 -22 40 -26 3 -4 17 -13 32 -21 170 -89 232 -119 243 -119 7 0 18 -7 25 -15 7 -8 20 -15 30 -15 10 0 31 -7 46 -15 16 -8 36 -15 44 -15 8 0 24 -7 34 -15 11 -8 30 -15 42 -15 12 0 38 -7 57 -15 20 -8 47 -15 61 -15 13 0 37 -7 52 -15 16 -8 48 -15 72 -15 24 0 53 -5 64 -11 20 -11 296 -33 398 -32 104 0 349 22 368 32 11 6 37 11 57 11 19 0 52 7 72 15 19 8 47 15 62 15 14 1 37 7 51 15 14 8 34 14 45 15 11 0 33 7 49 15 15 8 35 15 43 15 8 0 27 6 41 14 56 28 120 56 131 56 6 0 11 5 11 10 0 6 9 10 19 10 11 0 26 7 35 15 8 8 20 15 26 15 10 0 28 8 90 41 8 4 39 20 69 36 30 15 71 44 92 63 39 37 92 70 113 70 27 0 207 160 263 234 26 33 52 66 59 71 6 6 29 35 52 65 22 30 56 73 76 95 20 22 37 50 37 63 1 12 2 35 3 51 1 28 40 81 59 81 18 0 57 45 57 68 0 12 11 40 25 61 13 22 27 52 31 67 4 15 13 39 20 53 8 14 14 36 14 47 0 12 7 35 15 50 8 16 15 36 15 44 0 8 7 24 15 34 8 11 15 28 15 38 0 10 4 18 10 18 5 0 13 12 16 27 4 15 13 38 20 52 8 14 14 39 14 54 0 16 5 38 12 50 6 12 15 58 19 102 5 44 13 103 18 130 13 64 12 333 0 405 -5 30 -13 100 -18 155 -4 55 -13 110 -19 122 -7 12 -12 37 -12 55 0 19 -7 43 -15 54 -8 10 -15 28 -15 40 0 11 -7 29 -15 40 -8 10 -15 30 -15 44 0 14 -7 38 -15 54 -8 15 -15 38 -15 50 0 11 -7 34 -15 50 -8 15 -15 36 -15 45 0 9 -7 29 -15 45 -8 15 -15 36 -15 45 0 9 -6 25 -14 36 -7 11 -17 35 -21 53 -3 17 -11 32 -16 32 -5 0 -9 11 -9 24 0 13 -7 29 -15 36 -8 7 -15 20 -15 30 0 10 -7 23 -15 30 -8 7 -15 20 -15 30 0 10 -7 23 -15 30 -8 7 -15 20 -15 30 0 10 -7 23 -15 30 -8 7 -15 16 -15 21 0 4 -12 27 -27 51 -48 75 -53 82 -64 108 -5 13 -13 27 -17 30 -4 3 -13 16 -19 30 -24 48 -58 106 -108 179 -81 118 -101 151 -135 218 -12 23 -28 47 -36 54 -8 6 -14 19 -14 29 0 10 -6 23 -14 29 -8 7 -17 23 -20 36 -4 14 -11 25 -16 25 -6 0 -10 9 -10 19 0 11 -4 23 -10 26 -5 3 -21 29 -36 58 -33 64 -49 93 -74 132 -11 17 -25 41 -32 55 -7 14 -15 27 -18 30 -10 10 -31 46 -41 73 -6 15 -14 27 -18 27 -3 0 -15 17 -26 38 -11 20 -46 75 -77 123 -31 47 -60 97 -63 112 -4 15 -11 27 -16 27 -5 0 -9 11 -9 24 0 13 -7 29 -15 36 -8 7 -15 20 -15 30 0 10 -7 23 -15 30 -8 7 -15 20 -15 30 0 10 -6 23 -14 29 -8 7 -17 23 -20 36 -4 14 -11 25 -16 25 -6 0 -10 9 -10 19 0 11 -6 26 -13 33 -8 7 -17 26 -21 41 -3 15 -11 27 -16 27 -6 0 -10 7 -10 16 0 9 -6 28 -13 42 -18 35 -41 86 -62 137 -26 64 -46 108 -61 138 -8 16 -14 33 -14 39 0 5 -7 26 -16 46 -9 21 -22 52 -30 70 -8 18 -14 41 -14 51 0 10 -7 24 -15 31 -8 7 -15 22 -15 34 0 11 -6 33 -14 48 -8 15 -17 40 -21 57 -4 17 -11 33 -16 36 -5 4 -9 16 -9 28 0 12 -7 35 -15 51 -8 15 -15 36 -15 45 0 9 -7 29 -15 45 -8 15 -15 36 -15 45 0 9 -7 29 -15 45 -8 15 -15 36 -15 45 0 9 -7 29 -15 45 -8 15 -15 38 -15 50 0 11 -7 34 -15 50 -8 15 -15 38 -15 50 0 12 -7 31 -15 42 -8 10 -15 33 -15 50 0 16 -7 39 -15 50 -8 10 -15 30 -15 44 0 14 -7 38 -15 54 -8 15 -15 39 -15 53 0 14 -6 37 -14 51 -21 42 -37 109 -47 205 -5 49 -14 97 -19 107 -6 10 -10 47 -10 82 -1 35 -7 81 -15 103 -8 22 -15 54 -15 70 0 17 -7 43 -15 59 -8 15 -15 46 -15 67 0 22 -7 56 -15 76 -8 19 -15 47 -15 62 0 14 -7 39 -15 55 -8 15 -15 39 -15 51 0 30 -10 55 -22 55 -5 0 -16 -16 -24 -35z"/> </g> </svg> 